<?xml version="1.0" encoding="utf-8"?>
<!-- Generator: Adobe Illustrator 24.0.2, SVG Export Plug-In . SVG Version: 6.00 Build 0)  -->
<svg version="1.1" id="Layer_1" xmlns="http://www.w3.org/2000/svg" xmlns:xlink="http://www.w3.org/1999/xlink" x="0px" y="0px"
	 viewBox="0 0 100 100" enable-background="new 0 0 100 100" xml:space="preserve" width="43" height="43">
<g>
	<path fill="#FA8503" d="M31.667,45H40v3.333h-8.333V45z"/>
	<path fill="#FA8503" d="M10,45h18.333v3.333H10V45z"/>
	<path fill="#FA8503" d="M10,13.333h3.333v3.333H10V13.333z"/>
	<path fill="#FA8503" d="M10,51.667h30V55H10V51.667z"/>
	<path fill="#FA8503" d="M10,58.333h30v3.333H10V58.333z"/>
	<path fill="#FA8503" d="M10,65h30v3.333H10V65z"/>
	<path fill="#FA8503" d="M31.667,20H40v3.333h-8.333V20z"/>
	<path fill="#FA8503" d="M10,20h18.333v3.333H10V20z"/>
	<path fill="#FA8503" d="M31.667,26.667H40V30h-8.333V26.667z"/>
	<path fill="#FA8503" d="M10,26.667h18.333V30H10V26.667z"/>
	<path fill="#FA8503" d="M10,38.333h3.333v3.333H10V38.333z"/>
</g>
<path fill="#0B2E58" d="M98.132,34.227C99.337,33.02,100,31.418,100,29.715c0-3.52-2.863-6.382-6.38-6.382
	c-1.705,0-3.307,0.663-4.512,1.87l-2.442,2.44v-4.31c0-4.595-3.738-8.333-8.333-8.333H60V8.333C60,3.738,56.262,0,51.667,0h-40
	C7.072,0,3.333,3.738,3.333,8.333v78.333H1.667C0.745,86.667,0,87.413,0,88.333v3.333C0,96.262,3.738,100,8.333,100H40
	c3.677,0,6.667-2.99,6.667-6.667V85.69l36.667-36.667v34.31H70v3.333h13.333V90H60v3.333h36.667v3.333H50V100h48.333
	c0.922,0,1.667-0.747,1.667-1.667v-6.667c0-0.92-0.745-1.667-1.667-1.667H86.667V45.69L98.132,34.227z M40,83.333v-4.31
	l46.667-46.667l4.31,4.31L44.31,83.333H40z M91.465,27.558c0.568-0.567,1.352-0.892,2.155-0.892c1.68,0,3.047,1.367,3.047,3.048
	c0,0.813-0.317,1.58-0.892,2.155l-2.442,2.44L89.023,30L91.465,27.558z M83.333,23.333v7.643L46.667,67.643V36.667H65
	c4.595,0,8.333-3.738,8.333-8.333v-5c0-2.757,2.243-5,5-5C81.09,18.333,83.333,20.577,83.333,23.333L83.333,23.333z M71.71,18.333
	c-1.058,1.397-1.71,3.117-1.71,5v5c0,2.757-2.243,5-5,5s-5-2.243-5-5v-10H71.71z M56.667,8.333v20c0,1.883,0.652,3.603,1.71,5
	h-11.71v-25c0-2.757,2.243-5,5-5C54.423,3.333,56.667,5.577,56.667,8.333z M8.333,96.667c-2.757,0-5-2.243-5-5V90h30v3.333
	c0,1.213,0.325,2.352,0.895,3.333H8.333z M40,96.667c-1.838,0-3.333-1.495-3.333-3.333v-5c0-0.92-0.745-1.667-1.667-1.667H6.667
	V8.333c0-2.757,2.243-5,5-5h33.377c-1.058,1.397-1.71,3.117-1.71,5v62.643l-6.178,6.178c-0.313,0.312-0.488,0.737-0.488,1.178V85
	c0,0.92,0.745,1.667,1.667,1.667h5v6.667C43.333,95.172,41.838,96.667,40,96.667z"/>
</svg>
