<?xml version="1.0" encoding="utf-8"?>
<!-- Generator: Adobe Illustrator 24.0.2, SVG Export Plug-In . SVG Version: 6.00 Build 0)  -->
<svg version="1.1" id="Layer_1" xmlns="http://www.w3.org/2000/svg" xmlns:xlink="http://www.w3.org/1999/xlink" x="0px" y="0px"
	 viewBox="0 0 100 99.998" enable-background="new 0 0 100 99.998" xml:space="preserve" width="44" height="44">
<g id="Outline">
	<g>
		<path fill="#0B2E58" d="M91.665,39.999c-6.316-0.008-12.545-1.478-18.198-4.295l-1.057-0.53c-0.823-0.411-1.824-0.078-2.236,0.746
			c-0.116,0.232-0.176,0.487-0.176,0.746v10c0,0.92,0.746,1.667,1.667,1.667c0.92,0,1.667-0.746,1.667-1.667v-7.333
			c5.246,2.389,10.907,3.731,16.666,3.953v10.09c-5.76,0.223-11.421,1.567-16.666,3.957v-4c0-0.92-0.746-1.667-1.667-1.667
			c-0.92,0-1.667,0.746-1.667,1.667v6.667c-0.005,0.92,0.737,1.671,1.657,1.676c0.262,0.001,0.52-0.059,0.754-0.176l1.057-0.528
			c2.905-1.448,5.973-2.543,9.138-3.262l-1.553,6.208c-0.657,2.626,0.939,5.286,3.565,5.943c2.626,0.657,5.286-0.939,5.943-3.565
			l2.438-9.765c4.536-0.728,7.623-4.995,6.896-9.531C99.246,42.96,95.756,39.991,91.665,39.999z M87.331,65.479
			c-0.21,0.839-1.061,1.35-1.9,1.14c-0.839-0.21-1.35-1.061-1.14-1.9l1.917-7.667c1.1-0.15,2.203-0.263,3.312-0.323L87.331,65.479z
			 M93.331,53.026v-9.386c2.592,0.903,3.961,3.736,3.058,6.328C95.89,51.4,94.764,52.526,93.331,53.026z"/>
		<g>
			<path fill="#FA8503" d="M38.309,68.205c-0.153-0.908-1.012-1.519-1.92-1.367c-5.62,0.93-9.737,5.797-9.723,11.493v20
				c0,0.92,0.746,1.667,1.667,1.667s1.667-0.746,1.667-1.667v-20c-0.01-4.067,2.93-7.542,6.943-8.206
				C37.85,69.972,38.462,69.113,38.309,68.205z"/>
			<path fill="#FA8503" d="M61.665,66.665h-2.877c2.885-2.523,4.541-6.167,4.543-10c0-0.92-0.746-1.667-1.667-1.667
				c-0.92,0-1.667,0.746-1.667,1.667c0,5.523-4.477,10-10,10s-10-4.477-10-10v-6.59c2.354-0.269,4.588-1.184,6.455-2.643
				c2.44,2.697,5.908,4.235,9.545,4.233h5.667c0.92,0,1.667-0.746,1.667-1.667v-5c-0.007-6.44-5.226-11.659-11.666-11.666H34.999
				c-0.92,0-1.667,0.746-1.667,1.667v10c0.011,2.611,1.245,5.065,3.333,6.632v5.035c0.001,4.044,1.841,7.867,5,10.391v2.942
				c0,4.602,3.731,8.333,8.333,8.333s8.333-3.731,8.333-8.333h3.333c4.6,0.006,8.328,3.733,8.333,8.333v20
				c0,0.92,0.746,1.667,1.667,1.667c0.92,0,1.667-0.746,1.667-1.667v-20C73.324,71.892,68.105,66.673,61.665,66.665z M38.274,46.841
				c-0.392,0.013-0.766,0.165-1.057,0.428c-0.364-0.701-0.553-1.48-0.552-2.27v-8.333h15c4.6,0.006,8.328,3.733,8.333,8.333v3.333
				h-4c-3.198,0.004-6.184-1.595-7.955-4.258c-0.277-0.415-0.725-0.684-1.222-0.733c-0.056-0.003-0.111-0.003-0.167,0
				c-0.442,0-0.866,0.176-1.178,0.488l-0.205,0.205c-1.711,1.714-4.009,2.714-6.43,2.795L38.274,46.841z M49.999,74.998
				c-2.761,0-5-2.239-5-5v-0.982c3.205,1.309,6.795,1.309,10,0v0.982C54.999,72.76,52.76,74.998,49.999,74.998z"/>
			<circle fill="#FA8503" cx="54.999" cy="54.999" r="1.667"/>
			<circle fill="#FA8503" cx="44.999" cy="54.999" r="1.667"/>
			<path fill="#FA8503" d="M61.665,81.665c-0.92,0-1.667,0.746-1.667,1.667v15c0,0.92,0.746,1.667,1.667,1.667
				c0.92,0,1.667-0.746,1.667-1.667v-15C63.332,82.411,62.586,81.665,61.665,81.665z"/>
			<path fill="#FA8503" d="M38.333,81.665c-0.92,0-1.667,0.746-1.667,1.667v15c0,0.92,0.746,1.667,1.667,1.667
				c0.92,0,1.667-0.746,1.667-1.667v-15C39.999,82.411,39.253,81.665,38.333,81.665z"/>
		</g>
		<path fill="#0B2E58" d="M15.073,51.666h3.26c0.92,0,1.667-0.746,1.667-1.667c0-0.92-0.746-1.667-1.667-1.667h-3.248
			c0.874-17.988,15.26-32.374,33.248-33.248v3.248c0,0.92,0.746,1.667,1.667,1.667c0.92,0,1.667-0.746,1.667-1.667v-3.282
			c11.388,0.514,21.805,6.564,27.894,16.201c0.474,0.789,1.497,1.045,2.287,0.571c0.789-0.474,1.045-1.497,0.571-2.287
			c-0.015-0.025-0.03-0.049-0.046-0.073C75.673,18.864,64.195,12.23,51.666,11.718V1.667c0-0.92-0.746-1.667-1.667-1.667
			c-0.92,0-1.667,0.746-1.667,1.667v10.041c-19.848,0.888-35.736,16.777-36.624,36.624H1.667C0.746,48.332,0,49.078,0,49.999
			c0,0.92,0.746,1.667,1.667,1.667H11.74c0.353,8.291,3.384,16.244,8.64,22.666c0.604,0.694,1.657,0.767,2.351,0.162
			c0.667-0.581,0.764-1.581,0.222-2.279C18.187,66.389,15.424,59.184,15.073,51.666z"/>
		<path fill="#0B2E58" d="M28.333,64.135c0.92-0.001,1.666-0.748,1.665-1.668c0-0.292-0.077-0.579-0.223-0.832
			c-6.429-11.168-2.588-25.433,8.58-31.863c9.145-5.265,20.685-3.737,28.144,3.727c0.662,0.639,1.717,0.621,2.357-0.041
			c0.624-0.646,0.624-1.67,0-2.316c-10.407-10.42-27.291-10.431-37.712-0.024c-8.539,8.527-10.286,21.726-4.261,32.182
			C27.181,63.819,27.735,64.137,28.333,64.135z"/>
		<path fill="#0B2E58" d="M6.667,20.833c0.92,0,1.667-0.746,1.667-1.667V8.333h10.833c0.92,0,1.667-0.746,1.667-1.667
			S20.087,5,19.166,5h-12.5C5.746,5,5,5.746,5,6.667v12.5C5,20.087,5.746,20.833,6.667,20.833z"/>
		<path fill="#0B2E58" d="M80.832,8.333h10.833v10.833c0,0.92,0.746,1.667,1.667,1.667s1.667-0.746,1.667-1.667v-12.5
			c0-0.92-0.746-1.667-1.667-1.667h-12.5c-0.92,0-1.667,0.746-1.667,1.667S79.911,8.333,80.832,8.333z"/>
		<path fill="#0B2E58" d="M19.166,91.665H8.333V80.832c0-0.92-0.746-1.667-1.667-1.667S5,79.911,5,80.832v12.5
			c0,0.92,0.746,1.667,1.667,1.667h12.5c0.92,0,1.667-0.746,1.667-1.667S20.087,91.665,19.166,91.665z"/>
		<path fill="#0B2E58" d="M93.331,79.165c-0.92,0-1.667,0.746-1.667,1.667v10.833H80.832c-0.92,0-1.667,0.746-1.667,1.667
			s0.746,1.667,1.667,1.667h12.5c0.92,0,1.667-0.746,1.667-1.667v-12.5C94.998,79.911,94.252,79.165,93.331,79.165z"/>
	</g>
</g>
</svg>
