<?xml version="1.0" encoding="utf-8"?>
<!-- Generator: Adobe Illustrator 24.0.2, SVG Export Plug-In . SVG Version: 6.00 Build 0)  -->
<svg version="1.1" id="Layer_1" xmlns="http://www.w3.org/2000/svg" xmlns:xlink="http://www.w3.org/1999/xlink" x="0px" y="0px"
	 viewBox="0 0 82.638 100" enable-background="new 0 0 82.638 100" xml:space="preserve"  width="46" height="54">
<g>
	<g>
		<path fill="#0B2E58" d="M54.137,69.615c11.081-5.027,18.241-16.135,18.241-28.297c0-6.566-2.025-12.843-5.855-18.15
			c-0.473-0.656-1.389-0.804-2.045-0.33c-0.656,0.473-0.804,1.389-0.33,2.045c3.468,4.805,5.301,10.489,5.301,16.436
			c0,11.016-6.485,21.076-16.521,25.629c-1.949,0.883-3.208,2.823-3.208,4.942v6.635H32.919v-6.635c0-2.12-1.243-4.052-3.167-4.923
			C19.641,62.399,13.14,52.282,13.19,41.192c0.068-15.441,12.687-28.003,28.129-28.003c6.786,0,13.339,2.45,18.453,6.898
			c0.61,0.531,1.536,0.467,2.067-0.144c0.531-0.61,0.467-1.536-0.144-2.067c-5.646-4.912-12.883-7.618-20.376-7.618
			c-8.28,0-16.065,3.21-21.92,9.039c-5.856,5.829-9.102,13.6-9.138,21.88c-0.055,12.244,7.122,23.414,18.285,28.456
			c0.877,0.397,1.444,1.282,1.444,2.253v6.635h-0.508c-1.896,0-3.438,1.543-3.438,3.439v2.367c0,1.806,1.402,3.289,3.174,3.424
			l1.241,7.696c0.425,2.636,2.672,4.55,5.343,4.55h2.1c0.809,0,1.465-0.656,1.465-1.465s-0.656-1.465-1.465-1.465h-2.1
			c-1.225,0-2.255-0.878-2.45-2.087l-1.164-7.216h2.296c0.809,0,1.465-0.656,1.465-1.465s-0.656-1.465-1.465-1.465h-5.002
			c-0.28,0-0.508-0.228-0.508-0.508v-2.367c0-0.281,0.228-0.51,0.508-0.51h23.676c0.28,0,0.508,0.229,0.508,0.51v2.367
			c0,0.28-0.228,0.508-0.508,0.508H41.319c-0.809,0-1.465,0.656-1.465,1.465s0.656,1.465,1.465,1.465h9.132l-1.164,7.216
			c-0.195,1.209-1.226,2.087-2.45,2.087h-2.1c-0.809,0-1.465,0.656-1.465,1.465S43.928,100,44.737,100h2.1
			c2.67,0,4.917-1.913,5.343-4.55l1.241-7.696c1.772-0.135,3.174-1.618,3.174-3.424v-2.367c0-1.896-1.542-3.439-3.438-3.439h-0.508
			v-6.635C52.649,70.917,53.233,70.025,54.137,69.615L54.137,69.615z"/>
		<path fill="#FA8503" d="M23.281,49.211v8.681c0,0.809,0.656,1.465,1.465,1.465h33.146c0.809,0,1.465-0.656,1.465-1.465v-8.681
			c0-5.159-4.197-9.357-9.357-9.357h-1.087c2.293-2.075,3.736-5.072,3.736-8.4c0-6.247-5.082-11.33-11.33-11.33
			s-11.33,5.082-11.33,11.33c0,3.328,1.443,6.325,3.736,8.4h-1.087C27.479,39.854,23.281,44.051,23.281,49.211L23.281,49.211z
			 M32.919,31.454c0-4.632,3.768-8.4,8.4-8.4s8.4,3.768,8.4,8.4c0,4.632-3.768,8.4-8.4,8.4S32.919,36.086,32.919,31.454z M50,42.784
			c3.544,0,6.427,2.883,6.427,6.427v7.216H51.07v-2.481c0-0.809-0.656-1.465-1.465-1.465s-1.465,0.656-1.465,1.465v2.481H34.497
			v-2.481c0-0.809-0.656-1.465-1.465-1.465s-1.465,0.656-1.465,1.465v2.481h-5.357v-7.216c0-3.544,2.883-6.427,6.427-6.427H50z"/>
		<path fill="#0B2E58" d="M41.319,6.876c0.809,0,1.465-0.656,1.465-1.465V1.465C42.784,0.656,42.128,0,41.319,0
			c-0.809,0-1.465,0.656-1.465,1.465v3.946C39.854,6.22,40.51,6.876,41.319,6.876z"/>
		<path fill="#0B2E58" d="M22.096,10.954c0.271,0.47,0.764,0.733,1.27,0.733c0.248,0,0.5-0.063,0.731-0.196
			c0.701-0.404,0.941-1.3,0.536-2.001L22.66,6.072c-0.404-0.701-1.301-0.941-2.001-0.536c-0.701,0.404-0.941,1.3-0.536,2.001
			L22.096,10.954z"/>
		<path fill="#0B2E58" d="M6.072,22.66l3.417,1.973c0.231,0.133,0.483,0.196,0.731,0.196c0.506,0,0.999-0.263,1.27-0.733
			c0.404-0.701,0.164-1.596-0.536-2.001l-3.417-1.973c-0.701-0.405-1.596-0.164-2.001,0.536C5.131,21.36,5.371,22.256,6.072,22.66z"
			/>
		<path fill="#0B2E58" d="M6.876,41.319c0-0.809-0.656-1.465-1.465-1.465H1.465C0.656,39.854,0,40.51,0,41.319
			c0,0.809,0.656,1.465,1.465,1.465h3.946C6.22,42.784,6.876,42.128,6.876,41.319z"/>
		<path fill="#0B2E58" d="M9.489,58.004l-3.417,1.973c-0.701,0.404-0.941,1.3-0.536,2.001c0.271,0.47,0.764,0.733,1.27,0.733
			c0.248,0,0.5-0.063,0.731-0.196l3.417-1.973c0.701-0.404,0.941-1.3,0.536-2.001C11.086,57.84,10.19,57.6,9.489,58.004z"/>
		<path fill="#0B2E58" d="M58.541,11.49c0.231,0.133,0.483,0.196,0.731,0.196c0.506,0,0.999-0.263,1.27-0.733l1.973-3.417
			c0.404-0.701,0.164-1.596-0.536-2.001c-0.701-0.405-1.596-0.164-2.001,0.536l-1.973,3.417C57.6,10.19,57.84,11.086,58.541,11.49
			L58.541,11.49z"/>
		<path fill="#0B2E58" d="M72.418,24.83c0.248,0,0.5-0.063,0.731-0.196l3.417-1.973c0.701-0.404,0.941-1.3,0.536-2.001
			c-0.404-0.701-1.301-0.941-2.001-0.536l-3.417,1.973c-0.701,0.404-0.941,1.3-0.536,2.001C71.419,24.567,71.911,24.83,72.418,24.83
			L72.418,24.83z"/>
		<path fill="#0B2E58" d="M81.173,39.854h-3.946c-0.809,0-1.465,0.656-1.465,1.465c0,0.809,0.656,1.465,1.465,1.465h3.946
			c0.809,0,1.465-0.656,1.465-1.465C82.638,40.51,81.982,39.854,81.173,39.854z"/>
		<path fill="#0B2E58" d="M76.566,59.977l-3.417-1.973c-0.701-0.405-1.596-0.164-2.001,0.536c-0.404,0.701-0.164,1.596,0.536,2.001
			l3.417,1.973c0.231,0.133,0.483,0.196,0.731,0.196c0.506,0,0.999-0.263,1.27-0.733C77.507,61.278,77.267,60.382,76.566,59.977
			L76.566,59.977z"/>
	</g>
</g>
</svg>
